<svg id="Layer_1" xmlns="http://www.w3.org/2000/svg" viewBox="0 0 211 28">
  <style>
    .st0{fill:#fff}
  </style>
  <path class="st0" d="M199.8 6.6c-.2.1 0 2.4 0 3.6v1c-1.6-.1-1.8-.3-3.8-.3V6.6v.1c0-.2-.1-.4-.1-.4-.1-.1-2.4.4-2.6.8-.2.3.2 1 .3 2.4v2.3c-.7.4-.5 1.6 0 1.8v.1l-.1 2.7c0 .8-.1 1.7-.1 2.1-.1.8-.2 2.6-.2 2.6.9.3 2.4.4 2.7-.3.2-.4.1-.4.1-1.1v-5.6c2.1.1 2.1-.1 3.6-.2v2.3l.1 4.3v.3l.3.2c.5.2 2.2.3 2.2.2.1-.1.1-.2.1-.3v-7.2c2.9.1 3 .7 6.5 0 1-.2 1.2-2 0-2.1-3.3-.4-3.6-.4-6.4-.4V6.4h-.7c-.1 0-.8 0-1.4.1h-.3"/>
  <path class="st0" d="M203.9 2.3c.1.6.7 3.2 1.4 6.4.5 2 1.2 4.1 1.6 6.1.7 2.9 1.1 5.2 1.2 5.8-.6.2-3.1.9-6.1 1.7-1.9.5-4.1 1-6 1.4-2.9.7-5.3 1.4-5.9 1.6-.1-.6-.7-3.2-1.4-6.4-.5-2-.9-4.2-1.3-6.2-.7-2.9-1.5-5.3-1.6-5.8.6-.2 2.9-.9 5.9-1.6 1.9-.5 4.3-.9 6.2-1.4 3-.7 5.4-1.4 6-1.6m0-2c-3.7.9-3.1 1.1-6.7 2-3.5.9-3.5.9-7 1.7-3.4.8-4.9-1.1-6.9 1.5-1.8 2.4.7 2.8 1.3 5.5.7 2.8.5 2.9 1.2 5.7.7 2.7.8 2.7 1.5 5.5.6 2.6-1.3 4 1.2 5.3 2.5 1.3 3.1-.7 6-1.4 2.8-.7 2.8-.8 5.6-1.5 2.6-.7 2.6-.9 5.2-1.6 2.6-.7 3.9 1 5.2-1.2 1.5-2.6-.7-2.6-1.4-5.4-.7-2.8-.4-2.9-1.1-5.7-.7-2.7-.9-2.7-1.5-5.4-.6-2.6-.3-2.7-1.1-5.1-.1-.4-1 0-1.5.1M0 22.3h.7v-.9c.3.4.6.7 1 .8.3.2.7.2 1.1.2.4 0 .8-.1 1.2-.2.3-.2.6-.4.9-.7.2-.3.4-.7.6-1.1.1-.4.2-.9.2-1.4 0-.5-.1-.9-.2-1.3s-.3-.8-.5-1c-.3-.3-.6-.5-1-.7-.3-.2-.7-.3-1.2-.3s-.9.1-1.2.3c-.3.2-.6.5-.9.8v-3.4H0v8.9zm.7-3.5c0-.5.1-.9.2-1.2.2-.3.4-.6.7-.8.2-.2.4-.3.6-.3.2-.1.4-.1.7-.1.2 0 .5 0 .7.1.2.1.4.3.6.5.2.2.3.5.5.8.1.3.2.8.2 1.3s-.1.9-.2 1.3-.2.6-.4.9c-.2.2-.4.4-.6.5-.2.1-.5.2-.8.2-.2 0-.5 0-.7-.1l-.6-.3c-.2-.1-.3-.2-.4-.4-.2-.2-.3-.3-.3-.5-.1-.2-.1-.4-.1-.6v-1.3H.7zm6.5 3.5h.7v-3.8c0-.3.1-.6.2-.8.1-.2.3-.4.5-.6.2-.2.4-.3.6-.4.2-.1.4-.1.6-.1h.4l.1-.7h-.4c-.4 0-.7.1-1 .3-.3.2-.6.5-.9.8v-1h-.8v6.3zm8 0h.7v-4.2c0-.4 0-.7-.1-1-.1-.3-.2-.5-.4-.7-.2-.2-.4-.4-.7-.5-.3-.1-.7-.2-1.1-.2-1.4 0-2.2.5-2.4 1.6l.6.1c0-.2.1-.3.2-.4l.3-.3c.1-.1.3-.2.5-.2s.5-.1.8-.1c.6 0 1 .1 1.3.4.2.3.4.7.4 1.4v.2h-1.2c-.4 0-.8.1-1.2.1-.4.1-.7.2-1 .3-.3.2-.5.4-.7.6-.2.3-.3.6-.3 1 0 .6.2 1.1.6 1.4.4.3.9.5 1.6.5.3 0 .5 0 .7-.1.2-.1.4-.1.6-.2.2-.1.3-.2.5-.3l.4-.4v1h-.1zm0-2.4v.5c0 .1-.1.3-.1.4-.1.1-.1.2-.2.3-.1.1-.2.2-.4.3l-.6.3c-.3.1-.5.1-.8.1-.5 0-.9-.1-1.1-.4-.2-.2-.3-.5-.3-.9 0-.3 0-.5.1-.7.1-.2.2-.3.4-.5.2-.1.4-.2.8-.3h2.1v.9h.1zm2.5 2.4h.7v-3.7c0-.4.1-.7.2-.9.1-.2.3-.4.5-.7.2-.2.5-.4.7-.4.3-.1.5-.1.8-.1.5 0 .9.1 1.1.4.2.3.3.8.3 1.4v4h.7v-4.2c0-.7-.2-1.3-.5-1.7-.3-.4-.9-.6-1.6-.6-.4 0-.8.1-1.2.3-.4.2-.7.5-1.1.9v-1h-.7v6.3h.1zm11.4 0h.7v-8.8h-.7v3.3c-.3-.4-.6-.7-1-.8-.4-.1-.7-.2-1-.2-.9 0-1.5.3-2 .9-.5.6-.7 1.4-.7 2.5 0 .4.1.9.2 1.3s.3.7.5 1.1c.2.3.5.5.8.7.3.2.7.3 1.2.3s.9-.1 1.2-.3c.3-.2.6-.5.9-.8v.8h-.1zm.1-2.9c0 .5-.1.9-.2 1.2-.2.3-.4.6-.7.8-.2.2-.4.3-.6.3-.2.1-.4.1-.7.1-.2 0-.5 0-.7-.1-.2-.1-.4-.2-.6-.4-.2-.2-.3-.5-.5-.8-.1-.3-.2-.8-.2-1.3s.1-.9.2-1.3.2-.6.4-.9c.2-.2.4-.4.6-.5.2-.1.5-.2.8-.2.2 0 .5 0 .6.1l.6.3c.1.1.3.2.4.4.1.1.2.3.3.4.1.2.1.3.1.6v1.3h.2zm7.7 1.7h.7v-2.6H40v-.7h-2.4v-2.6h-.7v2.6h-2.4v.7h2.4v2.6zm12.2 1.2h.7v-8.8h-.7v3.3c-.3-.4-.6-.7-1-.8-.4-.1-.7-.2-1-.2-.9 0-1.5.3-2 .9-.5.6-.7 1.4-.7 2.5 0 .4.1.9.2 1.3s.3.7.5 1.1c.2.3.5.5.8.7.3.2.7.3 1.2.3s.9-.1 1.2-.3c.3-.2.6-.5.9-.8v.8h-.1zm.1-2.9c0 .5-.1.9-.2 1.2-.2.3-.4.6-.7.8-.2.2-.4.3-.6.3-.2.1-.4.1-.7.1-.2 0-.5 0-.7-.1-.2-.1-.4-.2-.6-.4-.2-.2-.3-.5-.5-.8-.1-.3-.2-.8-.2-1.3s.1-.9.2-1.3.2-.6.4-.9c.2-.2.4-.4.6-.5.2-.1.5-.2.8-.2.2 0 .5 0 .6.1l.6.3c.1.1.3.2.4.4.1.1.2.3.3.4.1.2.1.3.1.6v1.3h.2zm7 1.3c0 .2-.1.4-.2.5-.1.2-.2.3-.3.4-.1.1-.3.2-.5.3-.2.1-.5.1-.8.1-.3 0-.7-.1-.9-.2s-.5-.3-.7-.6c-.2-.2-.3-.5-.4-.8-.1-.3-.1-.7-.1-1h4.8v-.5c0-.4 0-.8-.1-1.2-.1-.4-.3-.7-.5-1-.2-.3-.5-.5-.8-.7-.3-.2-.7-.2-1.2-.2-.4 0-.8.1-1.1.2-.3.1-.6.4-.9.7-.3.3-.5.7-.6 1.1-.1.4-.2.9-.2 1.5 0 1 .2 1.8.7 2.4.5.6 1.2.9 2.1.9.8 0 1.4-.2 1.8-.5.4-.3.7-.8.8-1.3h-.9v-.1zm-4-2c.1-.8.3-1.4.7-1.8.4-.4.8-.6 1.4-.6.3 0 .6.1.9.2.2.1.5.3.6.5.2.2.3.5.3.7.1.3.1.6.1.9h-4v.1zm6 1.9c0 .4.1.7.3.9.1.2.3.4.6.6.2.2.5.3.8.3.3.1.7.1 1 .1.4 0 .7 0 1-.1.3-.1.5-.2.7-.4.2-.2.3-.4.4-.6.1-.2.2-.5.2-.7 0-.6-.2-1-.5-1.3-.3-.3-.8-.5-1.5-.6l-1-.2c-.3 0-.5-.1-.7-.2-.2-.1-.3-.1-.4-.2-.1-.1-.2-.2-.2-.3v-.4c0-.1 0-.3.1-.4.1-.1.2-.3.3-.4.1-.1.3-.2.5-.3.2-.1.5-.1.8-.1.3 0 .5 0 .7.1.2 0 .4.1.5.2.1.1.2.2.3.4.1.1.2.3.2.5l.6-.1c-.1-.2-.1-.4-.2-.6-.1-.2-.2-.4-.4-.5-.2-.1-.4-.3-.7-.4-.3-.1-.6-.1-1.1-.1-.3 0-.6 0-.9.1-.3.1-.5.2-.7.4-.2.2-.4.3-.5.6-.1.2-.2.5-.2.8 0 .3 0 .5.1.7.1.2.2.4.4.5.2.1.4.2.7.3.3.1.6.2.9.2l.8.1c.3 0 .5.1.7.2.2.1.3.2.4.3.1.1.2.2.2.4v.4c0 .3-.1.6-.4.9-.2.2-.7.3-1.3.3-.6 0-1.1-.1-1.4-.3-.3-.2-.5-.6-.6-1h-.5v-.1zm6.7 1.7h.7V16h-.7v6.3zm-.1-7.7h.8v-1.1h-.8v1.1zm2.6 8.4c0 .3.1.6.3.9.1.2.3.4.6.6.2.1.5.2.8.3.3.1.6.1 1 .1.9 0 1.6-.2 2-.7.4-.5.6-1.2.6-2V16H72v.9c-.3-.4-.6-.7-1-.8-.4-.2-.7-.2-1-.2-.4 0-.8.1-1.2.2-.3.2-.6.4-.9.7-.2.3-.4.6-.6 1-.1.4-.2.9-.2 1.3s.1.8.2 1.2c.1.4.3.7.5 1 .2.3.5.5.8.7.3.2.7.3 1.2.3s.9-.1 1.2-.3c.3-.2.7-.5.9-.9v.9c0 .8-.2 1.4-.5 1.7-.3.3-.8.5-1.5.5-.6 0-1.1-.1-1.4-.3-.3-.2-.5-.5-.6-.9h-.5zm4.7-3.9c0 .5-.1.9-.2 1.3-.1.3-.4.6-.6.8-.2.1-.4.3-.6.3-.2.1-.4.1-.7.1-.2 0-.5 0-.7-.1-.2-.1-.4-.2-.6-.4-.2-.2-.3-.5-.5-.8-.2-.4-.2-.8-.2-1.3s.1-.9.2-1.2c.1-.3.2-.6.4-.8.2-.2.4-.4.7-.5.2-.1.5-.1.8-.1.2 0 .5 0 .6.1l.6.3c.1.1.3.2.4.4.1.1.2.3.3.4.1.2.1.3.1.6v.9zm2.4 3.2h.7v-3.7c0-.4.1-.7.2-.9.1-.2.3-.4.5-.7.2-.2.5-.4.7-.4.3-.1.5-.1.8-.1.5 0 .9.1 1.1.4.2.3.3.8.3 1.4v4h.7v-4.2c0-.7-.2-1.3-.5-1.7-.3-.4-.9-.6-1.6-.6-.4 0-.8.1-1.2.3-.4.2-.7.5-1.1.9v-1h-.7v6.3h.1zm9.4 0h.7l2.7-9h-.7l-2.7 9zm3.8 0h.7l2.7-9h-.7l-2.7 9zm7.2 0h1.7v-3.9c0-.2 0-.4.1-.5.1-.2.2-.3.3-.4.1-.1.3-.2.4-.3.2-.1.3-.1.6-.1s.5.1.7.2c.2.2.3.5.3.9v4h1.7v-4.3c0-.8-.2-1.4-.5-1.8-.3-.4-.9-.6-1.6-.6-.4 0-.7.1-1 .2-.3.2-.6.4-.9.8v-3.2H95v9h-.1zm11.4-2c-.1.6-.5.9-1.2.9-.5 0-.8-.1-1.1-.4-.2-.3-.4-.7-.4-1.2h4.4v-.7c0-1-.2-1.7-.7-2.3-.5-.6-1.2-.9-2.2-.9-.5 0-.9.1-1.3.2-.4.2-.7.4-1 .7-.3.3-.5.7-.6 1.1-.2.4-.2.9-.2 1.4 0 1.1.3 1.9.8 2.5.5.6 1.3.9 2.4.9.9 0 1.5-.2 2-.6.5-.4.7-.9.9-1.6h-1.8zm-2.6-1.9c0-.2 0-.4.1-.5.1-.2.2-.3.3-.4.1-.1.3-.2.4-.3.2-.1.4-.1.6-.1.5 0 .8.1 1 .4.2.2.3.6.3 1h-2.7v-.1zm5.7 3.9h1.7v-8.8h-1.7v8.8zm3.3 0h1.7v-6.4h-1.7v6.4zm0-7.2h1.7v-1.6h-1.7v1.6zm3.3 5c0 .8.2 1.4.5 1.8.3.4.9.6 1.6.6.4 0 .7-.1 1-.3.3-.2.6-.4.9-.8v.9h1.6v-6.4H120v3.9c0 .2 0 .4-.1.5-.1.2-.2.3-.3.4-.1.1-.3.2-.4.3-.1.1-.3.1-.5.1-.3 0-.5-.1-.7-.2-.2-.2-.2-.5-.2-.9v-4H116v4.1zm7.3 2.2h1.7v-3.9c0-.2 0-.4.1-.5.1-.2.2-.3.3-.4.1-.1.3-.2.4-.3.1-.1.3-.1.5-.1h.3c.1 0 .2.1.2.2.1.1.1.2.2.3 0 .1.1.3.1.6v4.1h1.7v-3.9c0-.2 0-.3.1-.5.1-.1.2-.3.3-.4.1-.1.3-.2.4-.3.1-.1.3-.1.5-.1h.3c.1 0 .2.1.2.2.1.1.1.2.2.3 0 .1.1.3.1.6v4.1h1.7V18c0-.8-.2-1.4-.5-1.8-.3-.4-.8-.5-1.5-.5-.4 0-.7.1-1.1.3-.3.2-.6.5-.9.9-.1-.4-.3-.6-.6-.8-.3-.2-.7-.3-1.1-.3-.3 0-.7.1-1 .3-.3.2-.6.4-.8.8V16h-1.6v6.3h-.2zm18.1-2.1c-.1.5-.3.9-.6 1.2-.3.3-.7.4-1.3.4-.4 0-.7-.1-1-.2-.3-.1-.5-.3-.7-.6-.2-.2-.3-.5-.4-.9-.1-.3-.1-.7-.1-1.1 0-.4 0-.8.1-1.1.1-.3.2-.6.4-.9.2-.2.4-.4.7-.6.3-.1.6-.2 1-.2.3 0 .5 0 .7.1.2.1.4.2.5.3.1.1.2.3.3.5.1.2.2.4.2.6l.7-.2c-.1-.6-.4-1.2-.8-1.5-.4-.4-1-.5-1.6-.5-.5 0-.9.1-1.2.2-.4.2-.7.4-.9.7-.2.3-.4.7-.6 1.1-.1.4-.2.9-.2 1.4 0 .5.1 1 .2 1.4.1.4.3.8.6 1.1.2.3.5.5.9.7.4.2.8.2 1.2.2.7 0 1.3-.2 1.8-.6.4-.4.7-1 .8-1.7h-.7v.2zm2.2 2.1h.7v-3.8c0-.3.1-.6.2-.8.1-.2.3-.4.5-.6.2-.2.4-.3.6-.4.2-.1.4-.1.6-.1h.4l.1-.7h-.4c-.4 0-.7.1-1 .3-.3.2-.6.5-.9.8v-1h-.7v6.3h-.1zm8.4-1.6c0 .2-.1.4-.2.5-.1.2-.2.3-.3.4-.1.1-.3.2-.5.3-.2.1-.5.1-.8.1-.3 0-.7-.1-.9-.2-.3-.1-.5-.3-.7-.6-.2-.2-.3-.5-.4-.8-.1-.3-.1-.7-.1-1h4.8v-.5c0-.4 0-.8-.1-1.2-.1-.4-.3-.7-.5-1-.2-.3-.5-.5-.8-.7-.3-.2-.7-.2-1.2-.2-.4 0-.8.1-1.1.2-.3.1-.6.4-.9.7-.3.3-.5.7-.6 1.1-.1.4-.2.9-.2 1.5 0 1 .2 1.8.7 2.4.5.6 1.2.9 2.1.9.8 0 1.4-.2 1.8-.5.4-.3.7-.8.8-1.3h-.9v-.1zm-4-2c.1-.8.3-1.4.7-1.8.4-.4.8-.6 1.4-.6.3 0 .6.1.9.2.2.1.5.3.6.5.2.2.3.5.3.7.1.3.1.6.1.9h-4v.1zm10.3 3.6h.7v-4.2c0-.4 0-.7-.1-1-.1-.3-.2-.5-.4-.7-.2-.2-.4-.4-.7-.5-.3-.1-.7-.2-1.1-.2-1.4 0-2.2.5-2.4 1.6l.6.1c0-.2.1-.3.2-.4l.3-.3c.1-.1.3-.2.5-.2s.5-.1.8-.1c.6 0 1 .1 1.3.4.2.3.4.7.4 1.4v.2h-1.2c-.4 0-.8.1-1.2.1-.4.1-.7.2-1 .3-.3.2-.5.4-.7.6-.2.3-.3.6-.3 1 0 .6.2 1.1.6 1.4.4.3.9.5 1.6.5.3 0 .5 0 .7-.1.2-.1.4-.1.6-.2.2-.1.3-.2.5-.3l.4-.4v1h-.1zm0-2.4v.5c0 .1-.1.3-.1.4-.1.1-.1.2-.2.3-.1.1-.2.2-.4.3l-.6.3c-.3.1-.5.1-.8.1-.5 0-.9-.1-1.1-.4-.2-.2-.3-.5-.3-.9 0-.3 0-.5.1-.7.1-.2.2-.3.4-.5.2-.1.4-.2.8-.3.3-.1.7-.1 1.2-.1h1.1v1h-.1zm2.8.4v.8c0 .3.1.5.2.7.1.2.3.4.5.5.2.1.5.2.8.2.3 0 .5 0 .7-.1.2 0 .3-.1.4-.1l-.1-.6c-.1 0-.2.1-.4.1h-.5c-.3 0-.5-.1-.7-.3-.1-.2-.2-.5-.2-.8v-4.2h1.8V16h-1.8v-1.7h-.7V16h-1v.6h1v3.7zm3.8 2h.7V16h-.7v6.3zm0-7.7h.8v-1.1h-.8v1.1zm4.3 7.7h.8l2.5-6.3h-.8l-2.2 5.6-2.1-5.6h-.8l2.6 6.3zm8.8-1.6c0 .2-.1.4-.2.5-.1.2-.2.3-.3.4-.1.1-.3.2-.5.3-.2.1-.5.1-.8.1-.3 0-.7-.1-.9-.2s-.5-.3-.7-.6c-.2-.2-.3-.5-.4-.8-.1-.3-.1-.7-.1-1h4.8v-.5c0-.4 0-.8-.1-1.2-.1-.4-.3-.7-.5-1-.2-.3-.5-.5-.8-.7-.3-.2-.7-.2-1.2-.2-.4 0-.8.1-1.1.2-.3.1-.6.4-.9.7-.3.3-.5.7-.6 1.1-.1.4-.2.9-.2 1.5 0 1 .2 1.8.7 2.4.5.6 1.2.9 2.1.9.8 0 1.4-.2 1.8-.5.4-.3.7-.8.8-1.3h-.9v-.1zm-4-2c.1-.8.3-1.4.7-1.8.4-.4.8-.6 1.4-.6.3 0 .6.1.9.2.2.1.5.3.6.5.2.2.3.5.3.7.1.3.1.6.1.9h-4v.1z"/>
</svg>