<svg id="Layer_1" xmlns="http://www.w3.org/2000/svg" xmlns:xlink="http://www.w3.org/1999/xlink" viewBox="0 0 235 232.7">
  <style>
    .st0{clip-path:url(#SVGID_2_);fill:#223b91}.st1{fill:none;stroke:#263e90;stroke-width:1.0789;stroke-miterlimit:10}.st2{fill:#fff}.st3{clip-path:url(#SVGID_4_);fill:none;stroke:#223b91;stroke-width:21}.st3,.st4,.st5{stroke-miterlimit:10}.st4{clip-path:url(#SVGID_4_);fill:none;stroke:#cfe0ec;stroke-width:6}.st5{fill:#cfe0ec;stroke:#fff;stroke-width:.4029}.st6{fill:#22354a}
  </style>
  <defs>
    <path id="SVGID_1_" d="M52.4 198.1v-24.6H34.3v-51.7h49.1v37.4"/>
  </defs>
  <clipPath id="SVGID_2_">
    <use xlink:href="#SVGID_1_" overflow="visible"/>
  </clipPath>
  <path class="st0" d="M33 122.8l38.1 51.4 2.6-2-38.1-51.4zm-3.7 6.8l38 51.4 2.6-2-38.1-51.3zm-5.4 5.5l38 51.4 2.6-2-38-51.4zm-5.3 5.3l38 51.4 2.6-2-38-51.3zm-4.7 5.9l38 51.4 2.6-2-38-51.4zM54.6 102l38 51.4 2.6-2-38-51.3zm7.3-7.8l-2.6 1.9 38.1 51.4 2.6-1.9zm-12.7 13.3l38 51.4 2.6-2-38-51.4zm-5.2 5.3l38 51.4 2.6-2-38.1-51.4zm-4.8 5.9l38.1 51.4 2.6-2-38.1-51.4z"/>
  <path class="st1" d="M52.4 197.1v-24.3H34.3v-51h49.1v43"/>
  <path class="st2" d="M141.6 172.1h.8v4.8h2.7v.7h-3.5v-5.5zm7.8 3.9h-2l-.6 1.7h-.8l2.1-5.5h.8l2 5.5h-.9l-.6-1.7zm-1.7-.7h1.5l-.7-2.1-.8 2.1zm8.5.2c0 .8-.1 1.2-.4 1.6-.4.5-1 .7-1.7.7s-1.3-.2-1.7-.7c-.3-.4-.4-.8-.4-1.6v-3.3h.8v3.3c0 .5 0 .9.3 1.3.2.3.6.4 1 .4s.8-.1 1-.4c.3-.3.3-.7.3-1.3v-3.3h.8v3.3zm5.8 1.6c-.6.5-1.3.6-2.1.6h-1.8v-5.5h1.6c.9 0 1.7 0 2.5.7s.8 1.7.8 2.1c-.1.9-.4 1.6-1 2.1zm-1.2-4.2c-.3-.1-.6-.1-1-.1h-.9v4.1h.9c.5 0 1 0 1.4-.2.4-.2.9-.7.9-1.8s-.4-1.7-1.3-2zm3.7-.8h3.8v.7h-3.1v1.6h2.7v.7h-2.7v1.8h3.2v.7h-3.9v-5.5zm7.4 3.6h-1.1v2h-.8v-5.5h2.2c1.1 0 1.8.8 1.8 1.8 0 .8-.5 1.5-1.3 1.7l1.7 2.1h-1l-1.5-2.1zm.3-2.9h-1.4v2.1h1.4c.7 0 1.1-.5 1.1-1.1 0-.5-.4-1-1.1-1zm7.6 4.3c-.6.5-1.3.6-2.1.6h-1.8v-5.5h1.6c.9 0 1.7 0 2.5.7s.8 1.7.8 2.1c-.1.9-.4 1.6-1 2.1zm-1.2-4.2c-.3-.1-.6-.1-1-.1h-.9v4.1h.9c.5 0 1 0 1.4-.2.4-.2.9-.7.9-1.8s-.4-1.7-1.3-2zm6.5 3.1h-2l-.6 1.7h-.8l2.1-5.5h.8l2 5.5h-.9l-.6-1.7zm-1.8-.7h1.5l-.7-2.1-.8 2.1zm4.5-3.2h.8v4.8h2.7v.7h-3.5v-5.5zm5 0h3.8v.7h-3.1v1.6h2.7v.7h-2.7v1.8h3.2v.7h-3.9v-5.5zm-52.4 11.1l-2 3.9-2-3.9v4h-.8v-5.5h.9l2 3.7 2-3.7h.8v5.5h-.8v-4zm5.6 2.3h-2l-.6 1.7h-.8l2.1-5.5h.8l2 5.5h-.9l-.6-1.7zm-1.8-.7h1.5l-.7-2.1-.8 2.1zm6.4.4h-1.1v2h-.8v-5.5h2.2c1.1 0 1.8.8 1.8 1.8 0 .8-.5 1.5-1.3 1.7l1.7 2.1h-1l-1.5-2.1zm.3-2.9h-1.4v2.1h1.4c.7 0 1.1-.5 1.1-1.1 0-.5-.4-1-1.1-1zm3.7-.7h.8v5.5h-.8v-5.5zm3.5 1.4v4.1h-.8v-5.5h.8l3 4.2v-4.2h.8v5.5h-.9l-2.9-4.1zm5.6-1.4h3.8v.7h-3.1v1.6h2.7v.7h-2.7v1.8h3.2v.7h-3.9v-5.5zm12.7 1.7c-.3-.7-1-1.1-1.8-1.1-1.1 0-2 1-2 2.2 0 1.3.9 2.2 2 2.2.8 0 1.5-.5 1.8-1.1h.8c-.4 1.1-1.4 1.9-2.6 1.9-1.6 0-2.8-1.3-2.8-2.9 0-1.7 1.2-2.9 2.8-2.9 1.2 0 2.2.8 2.6 1.9h-.8zm2.3-1.7h3.8v.7h-3.1v1.6h2.7v.7h-2.7v1.8h3.2v.7h-3.9v-5.5zm6.4 1.4v4.1h-.8v-5.5h.8l3 4.2v-4.2h.8v5.5h-.9l-2.9-4.1zm7.6 4.2h-.8v-4.8h-1.6v-.7h4.1v.7h-1.6v4.8zm3-5.6h3.8v.7h-3.1v1.6h2.7v.7h-2.7v1.8h3.2v.7h-3.9v-5.5zm7.4 3.6H202v2h-.8v-5.5h2.2c1.1 0 1.8.8 1.8 1.8 0 .8-.5 1.5-1.3 1.7l1.7 2.1h-1l-1.5-2.1zm.3-2.9H202v2.1h1.4c.7 0 1.1-.5 1.1-1.1 0-.5-.5-1-1.1-1z"/>
  <defs>
    <path id="SVGID_3_" d="M0 0h235v232.7H0z"/>
  </defs>
  <clipPath id="SVGID_4_">
    <use xlink:href="#SVGID_3_" overflow="visible"/>
  </clipPath>
  <path class="st3" d="M-19.9 297.6S122.1 98 229.7 75.2c.4-.1.7-.2 1.1-.2C338.5 53.3 383.5 2.3 383.5 2.3"/>
  <path class="st4" d="M117.5-151.7s.7 634.7 9.3 638"/>
  <path class="st5" d="M126.1 54.1c-3.4 2.2-7.8-.2-8.2-.4 0 0-4.7 2.8-8.4.6 0 0-10.2 15.9 8.5 23 18.6-7.5 8.1-23.2 8.1-23.2z"/>
  <path class="st6" d="M116.7 66.1c-.4 1.6-1.4 2.5-2.8 2.5-.7 0-1.2-.2-1.7-.5-.4-.4-.7-.8-.8-1.4h1.5c.2.5.5.7 1 .7.4 0 .8-.2 1-.5.3-.4.4-1.1.5-1.7-.4.5-1 .7-1.6.7-1.3 0-2.6-.9-2.6-2.6 0-1.4.9-2.7 2.7-2.7.6 0 1.5.2 2.2 1.1.4.5.7 1.2.7 2.8.1.6 0 1.1-.1 1.6zm-2.7-4.3c-.7 0-1.3.6-1.3 1.4 0 .9.5 1.4 1.3 1.4s1.3-.6 1.3-1.4c0-.8-.5-1.4-1.3-1.4zm6.9 6.8c-1.3 0-2.4-.7-2.7-2h1.5c.2.5.6.8 1.2.8.8 0 1.4-.6 1.4-1.7 0-.9-.5-1.5-1.3-1.5s-1.1.6-1.2 1h-1.3v-4.4h4.8V62h-3.4v1.3c.3-.3.8-.4 1.3-.4 1.7 0 2.6 1.4 2.6 2.8-.2 1.4-1 2.9-2.9 2.9z"/>
  <path class="st2" d="M40.2 221.5l3 2.1-.4.6-4-2.8.4-.6h4.5l-3-2.1.4-.6 4 2.8-.4.6h-4.5zm2-4.9l2.1-2.7.5.4-1.6 2.1 1.1.9 1.4-1.9.5.4-1.4 1.9 1.3 1 1.7-2.2.5.4-2.1 2.8-4-3.1zm9.5-4l-3.8-1.6 2.3 3.4-.4.5-4.7-2 .5-.6 3.7 1.6-2.3-3.4.4-.5 3.8 1.5-2.3-3.4.5-.6 2.8 4.3-.5.8zm4.3-7.5l-.6.7 1.3 1.2-.5.5-3.6-3.3 1.3-1.4c.6-.7 1.6-.7 2.3-.1.5.5.6 1.2.3 1.8l2.4.1-.6.6-2.3-.1zm-1.7-1.9l-.8.9 1.4 1.3.8-.9c.4-.4.4-1 0-1.4-.5-.3-1-.3-1.4.1zm1.8-2.8l.5-.5 3.5 3.4-.5.5-3.5-3.4zm6 .9l-4.6-2.3.5-.5 3.7 1.9-1.9-3.7.5-.5 2.2 4.7-.4.4zm-.8-6l2.5-2.3.4.5-2 1.8 1 1 1.7-1.6.4.5-1.7 1.6 1.1 1.2 2-1.9.4.5-2.5 2.4-3.3-3.7zm7-2.2l-.7.6 1.2 1.3-.5.5-3.2-3.7 1.5-1.3c.7-.6 1.7-.6 2.3.1.5.5.5 1.3.2 1.9l2.3.4-.6.6-2.5-.4zm-1.5-2l-.9.8 1.3 1.4.9-.8c.4-.4.5-.9.1-1.4-.4-.4-1-.4-1.4 0zM190.4 88.9l1.8 3.2-.6.3-2.4-4.3.6-.4 4.1 1.9-1.8-3.2.6-.3 2.4 4.2-.6.4-4.1-1.8zm3.9-3.6l3-1.6.3.6-2.4 1.2.7 1.3 2.1-1.1.3.6-2.1 1.1.7 1.4 2.5-1.3.3.6-3.1 1.6-2.3-4.4zm10.3.3l-2.8-3 .6 4.1-.6.3-3.4-3.8.7-.3 2.7 3.1-.6-4.1.6-.3 2.8 3-.7-4 .7-.3.7 5.1-.7.2zm7.1-4.9l-.9.4.6 1.6-.7.3-1.8-4.5 1.8-.7c.9-.3 1.8 0 2.1.9.3.7.1 1.4-.5 1.8l2.1 1.1-.8.3-1.9-1.2zm-.7-2.4l-1.1.5.7 1.8 1.1-.5c.6-.2.8-.7.5-1.2-.2-.6-.7-.8-1.2-.6zm2.8-1.8l.7-.2 1.7 4.6-.7.2-1.7-4.6zm5.1 3.4l-3.2-4.1.7-.3 2.6 3.3-.1-4.2.7-.3v5.2l-.7.4zm1.8-5.8l3.2-1 .2.6-2.6.8.4 1.4 2.2-.7.2.6-2.2.7.5 1.5 2.6-.9.2.6-3.3 1.1-1.4-4.7zm7.2 1l-.9.3.5 1.7-.7.2-1.4-4.7 1.9-.5c.9-.3 1.8.2 2 1.1.2.7-.1 1.4-.7 1.8l2 1.3-.8.2-1.9-1.4zm-.5-2.5l-1.2.3.5 1.8 1.2-.3c.6-.2.8-.7.7-1.2-.1-.5-.6-.8-1.2-.6zM82.9 161.5H108v.9H82.9zm0 1.9H108v.9H82.9zm-68.5-12.2c0 3.2 1.6 3.4 3 3.4v.4H9.2v-.4c1.3 0 1.8-1.1 1.8-3.4v-12.5c0-1.8-.6-2.9-1.9-2.9v-.4h6c5.5 0 9.3.8 9.3 5.6s-3.8 5.6-9.3 5.6h-.7v4.6zm.8-4.9c3.1 0 5.5-.1 5.5-5.2 0-5.1-2.5-5.2-5.5-5.2h-.7v10.3h.7zm19.1 9c-6.1 0-9.3-4.4-9.3-9.9s3.2-10.2 9.3-10.2c6.1 0 9.3 4.7 9.3 10.2 0 5.5-3.2 9.9-9.3 9.9zm0-19.6c-3.3 0-5.3 2.1-5.3 9.7s2 9.5 5.3 9.5 5.3-1.8 5.3-9.5c0-7.6-2-9.7-5.3-9.7zM62 155h-2.3c-4.3 0-3.7 0-5.5-6-.8-2.9-3.5-2.9-3.9-2.9H49v5.8c0 1.9.8 2.7 1.9 2.7v.4h-7.2v-.4c1.2 0 1.9-.8 1.9-2.9v-13.5c0-1.7-.6-2.3-1.9-2.3v-.4h6.1c5.5 0 9 .7 9 5.3 0 3.6-2.2 4.8-5.3 5 1.8-.1 3.9.6 5.3 6.2.6 2.1 2.4 2.5 3.1 2.6v.4zm-12.1-19.1H49v9.8h.9c2.9 0 5.2 0 5.2-4.9s-2.4-4.9-5.2-4.9zm28.3-.4v5.2h-.4c-.2-4.7-5.4-4.8-5.6-4.8H71V152c0 1.9 1 2.6 2.2 2.6v.4h-7.8v-.4c1.2 0 2.2-.7 2.2-2.6v-16.1h-1.1c-.4 0-5.4.1-5.6 4.8h-.4v-5.2h17.7zm3.8 16.9l.7-.7c1.6 1.9 3.2 2.7 5.3 2.7 3.6 0 5.4-2.3 5.4-5 0-2.6-1.5-4.9-6.3-4.9h-.9v-.8l6.6-7.2h-10v-.9h11.3v.9l-6.6 7.1c5.3.2 6.9 2.8 6.9 5.8s-2.1 5.9-6.3 5.9c-2.6 0-4.5-.8-6.1-2.9zm13.7 1.8l8.1-7.8c2-1.9 2.9-3.5 2.9-5.6 0-2.3-1.9-4.6-4.8-4.6-2.5 0-4.1 1.2-5.2 3.2l-.8-.5c1.1-2.1 3-3.6 5.9-3.6 3.4 0 5.8 2.6 5.8 5.5 0 2.2-.7 3.9-3.2 6.2l-7.4 7.1h11v.9H95.7v-.8zM9.5 164.3v-2.7h2.2v.4H10v.7h1v.4h-1v1.2h-.5zm5.8-2.8c.9 0 1.5.6 1.5 1.4 0 .8-.7 1.4-1.5 1.4s-1.5-.6-1.5-1.4c0-.7.6-1.4 1.5-1.4zm0 2.5c.6 0 1-.5 1-1 0-.6-.5-1-1-1-.6 0-1 .5-1 1-.1.5.4 1 1 1zm4 .3v-2.7h1.5c.4 0 .6.1.8.3.1.1.2.3.2.5 0 .4-.2.6-.6.8l.6 1.1h-.5l-.6-1h-1v1h-.4zm.5-2.3v.8h1.1c.2 0 .5-.2.5-.4 0-.1 0-.2-.1-.3-.1-.1-.3-.1-.4-.1h-1.1zm4.2-.4h2.6v.4h-1.1v2.3H25V162h-1v-.4zm8.2 0v2.3h1.7v.4h-2.1v-2.7h.4zm4.9 0h.4l1.3 2.7h-.5l-.3-.7h-1.3l-.3.7h-.5l1.2-2.7zm-.3 1.6h1l-.5-1.1-.5 1.1zm6.6-1.6v1.8c0 .7-.5 1-1.2 1s-1.2-.4-1.2-1v-1.8h.5v1.8c0 .4.3.6.7.6.4 0 .7-.2.7-.6v-1.8h.5zm2.7 2.7v-2.7h1.3c.5 0 .8.1 1 .4.2.2.4.6.4 1s-.1.8-.4 1c-.2.2-.5.3-1 .3h-1.3zm1.3-.4c.3 0 .5-.1.6-.2.2-.2.3-.4.3-.7 0-.3-.1-.5-.3-.7-.2-.1-.3-.2-.6-.2h-.8v1.9h.8zm5.4-.8h-1v.8h1.8v.4h-2.3v-2.7h2.2v.4h-1.7v.7h1v.4zm3.2 1.2v-2.7h1.5c.4 0 .6.1.8.3.1.1.2.3.2.5 0 .4-.2.6-.6.8l.6 1.1H58l-.6-1h-1v1H56zm.5-2.3v.8h1.1c.2 0 .5-.2.5-.4 0-.1 0-.2-.1-.3-.1-.1-.3-.1-.4-.1h-1.1zm4.6 2.3v-2.7h1.3c.5 0 .8.1 1 .4.2.2.4.6.4 1s-.1.8-.4 1c-.2.2-.5.3-1 .3h-1.3zm1.3-.4c.3 0 .5-.1.6-.2.2-.2.3-.4.3-.7 0-.3-.1-.5-.3-.7-.2-.1-.3-.2-.6-.2h-.8v1.9h.8zm4.7-2.3h.4l1.3 2.7h-.5l-.3-.7h-1.3l-.3.7h-.5l1.2-2.7zm-.3 1.6h1l-.5-1.1-.5 1.1zm4.8-1.6v2.3h1.7v.4h-2.1v-2.7h.4zm5.6 1.5h-1v.8H78v.4h-2.3v-2.7h2.2v.4h-1.7v.7h1v.4zM196.7 23.5H195l.1-9.4h1.6l4.4 6.2.1-6.1h1.7l-.1 9.4h-1.6l-4.4-6.2-.1 6.1zm-1.9-12.3l4.2-6.6 4.3 6.6"/>
</svg>