<?xml version="1.0" encoding="utf-8"?>
<!-- Generator: Adobe Illustrator 21.0.0, SVG Export Plug-In . SVG Version: 6.00 Build 0)  -->
<svg version="1.1" id="Layer_1" xmlns="http://www.w3.org/2000/svg" xmlns:xlink="http://www.w3.org/1999/xlink" x="0px" y="0px"
	 viewBox="0 0 272 80" enable-background="new 0 0 272 80" xml:space="preserve">
<g>
	<rect x="202.9" y="71.9" fill="#FFFFFF" width="69.1" height="2.4"/>
	<rect x="202.9" y="77.2" fill="#FFFFFF" width="69.1" height="2.4"/>
	<g>
		<path fill="#FFFFFF" d="M14.5,43.8c0,8.9,4.3,9.3,8.3,9.3v1.1H0.2v-1.1c3.5,0,5-3,5-9.2V9.7c0-4.9-1.6-7.9-5.2-7.9V0.7h16.6
			c15.2,0,25.6,2.3,25.6,15.4c0,13.1-10.5,15.3-25.6,15.3h-2.1V43.8z M16.6,30.2c8.4,0,15.2-0.4,15.2-14.2c0-14-6.9-14.2-15.2-14.2
			h-2.1v28.4H16.6z"/>
		<path fill="#FFFFFF" d="M69.2,55c-16.8,0-25.6-12-25.6-27.1C43.6,12.8,52.4,0,69.2,0C86,0,94.8,12.8,94.8,27.9
			C94.8,43,86,55,69.2,55z M69.2,1.1c-9.1,0-14.6,5.9-14.6,26.7c0,20.9,5.6,26,14.6,26c9,0,14.5-5,14.5-26C83.7,7,78.2,1.1,69.2,1.1
			z"/>
		<path fill="#FFFFFF" d="M145.4,54.3H139c-11.8-0.1-10.1-0.1-15-16.6c-2.3-7.9-9.7-7.9-10.7-7.9h-3.6v15.9c0,5.3,2.1,7.5,5.3,7.5
			v1.1H95.4v-1.1c3.3,0,5.1-2.1,5.1-7.9V8.1c0-4.7-1.8-6.3-5.1-6.3V0.7h16.7c15.2,0,24.8,1.8,24.8,14.5c0,9.8-6,13.1-14.6,13.9
			c5-0.2,10.7,1.8,14.5,17c1.5,5.8,6.6,6.9,8.6,7.1V54.3z M112.1,1.8h-2.4v26.8h2.4c8.1,0,14.3,0,14.3-13.4
			C126.4,1.7,119.9,1.8,112.1,1.8z"/>
		<path fill="#FFFFFF" d="M189.9,0.7v14.4h-1.1c-0.5-13-15-13.2-15.5-13.2h-3V46c0,5.1,2.8,7.2,6,7.2v1.1H155v-1.1
			c3.2,0,6-2.1,6-7.2V1.8h-3c-1.1,0-15,0.2-15.4,13.2h-1.1V0.7H189.9z"/>
	</g>
	<g>
		<path fill="#FFFFFF" d="M200.6,47.1l2-1.9c4.3,5.3,8.7,7.4,14.7,7.4c9.8,0,14.8-6.2,14.8-13.6c0-7.2-4.1-13.4-17.4-13.4H212v-2.1
			l18.3-19.9h-27.7V1.1h31v2.5l-18,19.5c14.7,0.5,19.1,7.6,19.1,15.9c0,8.4-5.7,16.1-17.4,16.1C209.9,55.1,205,52.7,200.6,47.1z"/>
		<path fill="#FFFFFF" d="M238.2,51.9l22.2-21.4c5.4-5.2,8-9.6,8-15.3c0-6.4-5.2-12.5-13.3-12.5c-6.8,0-11.3,3.4-14.2,8.7l-2.2-1.4
			c3.2-5.6,8.3-9.8,16.4-9.8c9.4,0,15.9,7,15.9,15c0,6.1-2,10.6-8.7,17l-20.4,19.5h30v2.5h-33.7V51.9z"/>
	</g>
	<g>
		<path fill="#FFFFFF" d="M1,79.8v-7.5h6v1.1H2.2v1.8h2.9v1.1H2.2v3.3H1z"/>
		<path fill="#FFFFFF" d="M16.9,72.1c2.4,0,4.2,1.8,4.2,3.9c0,2.2-1.9,4-4.2,4s-4.2-1.8-4.2-4C12.7,73.8,14.6,72.1,16.9,72.1z
			 M16.9,78.9c1.6,0,2.9-1.3,2.9-2.8c0-1.5-1.3-2.8-2.9-2.8c-1.6,0-2.9,1.3-2.9,2.8C14.1,77.6,15.3,78.9,16.9,78.9z"/>
		<path fill="#FFFFFF" d="M28,79.8v-7.5h4.1c1,0,1.7,0.3,2.2,0.8c0.4,0.4,0.6,0.9,0.6,1.5c0,1-0.7,1.8-1.6,2.1l1.8,3h-1.5l-1.6-2.9
			h-2.7v2.9H28z M29.3,73.5v2.3h3.1c0.7,0,1.2-0.5,1.2-1.2c0-0.3-0.1-0.5-0.3-0.7c-0.4-0.4-0.8-0.4-1.2-0.4H29.3z"/>
		<path fill="#FFFFFF" d="M40.9,72.3h7.2v1.1h-2.9v6.3h-1.3v-6.3h-2.9V72.3z"/>
		<path fill="#FFFFFF" d="M63.4,72.3v6.3H68v1.1h-5.9v-7.5H63.4z"/>
		<path fill="#FFFFFF" d="M76.9,72.3h1.2l3.5,7.5h-1.4l-0.9-2h-3.6l-0.9,2h-1.3L76.9,72.3z M76.1,76.7h2.6l-1.3-2.9h-0.1L76.1,76.7z
			"/>
		<path fill="#FFFFFF" d="M94.3,72.3v4.8c0,1.8-1.4,2.9-3.3,2.9c-1.9,0-3.3-1-3.3-2.9v-4.8H89v4.8c0,1.1,0.9,1.7,2,1.7
			c1.1,0,2-0.6,2-1.7v-4.8H94.3z"/>
		<path fill="#FFFFFF" d="M101.7,79.8v-7.5h3.6c1.4,0,2.1,0.4,2.7,1c0.7,0.7,1,1.6,1,2.7c0,1.1-0.4,2.1-1.1,2.8
			c-0.6,0.6-1.3,0.9-2.7,0.9H101.7z M105.2,78.6c1,0,1.3-0.2,1.7-0.6c0.5-0.5,0.8-1.2,0.8-2c0-0.8-0.3-1.5-0.7-2
			c-0.4-0.4-0.8-0.6-1.8-0.6H103v5.2H105.2z"/>
		<path fill="#FFFFFF" d="M120.1,76.4h-2.9v2.2h5.1v1.1H116v-7.5h6.1v1.1h-4.8v1.8h2.9V76.4z"/>
		<path fill="#FFFFFF" d="M129,79.8v-7.5h4.1c1,0,1.7,0.3,2.2,0.8c0.4,0.4,0.6,0.9,0.6,1.5c0,1-0.7,1.8-1.6,2.1l1.8,3h-1.5l-1.6-2.9
			h-2.7v2.9H129z M130.3,73.5v2.3h3.1c0.7,0,1.2-0.5,1.2-1.2c0-0.3-0.1-0.5-0.3-0.7c-0.4-0.4-0.8-0.4-1.2-0.4H130.3z"/>
		<path fill="#FFFFFF" d="M142.9,79.8v-7.5h3.6c1.4,0,2.1,0.4,2.7,1c0.7,0.7,1,1.6,1,2.7c0,1.1-0.4,2.1-1.1,2.8
			c-0.6,0.6-1.3,0.9-2.7,0.9H142.9z M146.5,78.6c1,0,1.3-0.2,1.7-0.6c0.5-0.5,0.8-1.2,0.8-2c0-0.8-0.3-1.5-0.7-2
			c-0.4-0.4-0.8-0.6-1.8-0.6h-2.2v5.2H146.5z"/>
		<path fill="#FFFFFF" d="M159.5,72.3h1.2l3.5,7.5h-1.4l-0.9-2h-3.6l-0.9,2h-1.3L159.5,72.3z M158.7,76.7h2.6l-1.3-2.9H160
			L158.7,76.7z"/>
		<path fill="#FFFFFF" d="M171.9,72.3v6.3h4.6v1.1h-5.9v-7.5H171.9z"/>
		<path fill="#FFFFFF" d="M187.1,76.4h-2.9v2.2h5.1v1.1H183v-7.5h6.1v1.1h-4.8v1.8h2.9V76.4z"/>
	</g>
</g>
</svg>
