<?xml version="1.0" encoding="utf-8"?>
<!-- Generator: Adobe Illustrator 21.0.0, SVG Export Plug-In . SVG Version: 6.00 Build 0)  -->
<svg version="1.1" id="Layer_1" xmlns="http://www.w3.org/2000/svg" xmlns:xlink="http://www.w3.org/1999/xlink" x="0px" y="0px"
	 viewBox="0 0 28 75" style="enable-background:new 0 0 28 75;" xml:space="preserve">
<style type="text/css">
	.st0{fill:#FFFFFF;}
</style>
<g>
	<path class="st0" d="M6.8,62.2l6.6-7.1v-1.4H0.9v1.5h10.2l-6.6,7.2v1.2h1.3c4.2,0,6.4,1.6,6.4,4.8c0,3-2.1,4.9-5.4,4.9
		c-2.3,0-3.8-0.8-5.4-2.7l-0.2-0.2L0,71.6l0.2,0.2C1.9,74.1,3.9,75,6.8,75c4.8,0,7-3.2,7-6.4C13.8,65.9,12.5,62.6,6.8,62.2"/>
	<path class="st0" d="M16.9,73.2l7.3-6.9c2.5-2.4,3.4-4.2,3.4-6.7c0-3.4-2.8-6-6.4-6c-2.9,0-5.1,1.3-6.5,3.9l-0.1,0.2l1.3,0.9
		l0.2-0.3c1.2-2.1,2.9-3.2,5.2-3.2c3,0,4.8,2.3,4.8,4.5c0,2-0.9,3.6-3,5.6l-8.6,8.3v1.3H28v-1.5H16.9z"/>
	<path class="st0" d="M11.8,14.6c4.1,0,7.5-0.2,7.5-7c0-6.9-3.4-7-7.5-7h-1v14H11.8z M10.7,21.3c0,4.4,2.1,4.6,4.1,4.6v0.6H3.7v-0.6
		c1.7,0,2.5-1.5,2.5-4.5V4.5c0-2.4-0.8-3.9-2.6-3.9V0h8.2c7.5,0,12.7,1.1,12.7,7.6c0,6.5-5.2,7.5-12.7,7.5h-1V21.3z"/>
	
		<rect x="12.9" y="24.7" transform="matrix(1.718045e-03 -1 1 1.718045e-03 -23.3874 51.3006)" class="st0" width="2.2" height="25.3"/>
	
		<rect x="12.9" y="29.5" transform="matrix(1.789726e-03 -1 1 1.789726e-03 -28.1717 56.0728)" class="st0" width="2.2" height="25.3"/>
</g>
</svg>
